<svg width="32" height="32" viewBox="0 0 32 32" fill="none" xmlns="http://www.w3.org/2000/svg">
  <!-- Outer circle - representing sensor/detection area -->
  <circle cx="16" cy="16" r="14" stroke="#181414" stroke-width="1.5" fill="none" opacity="0.6"/>
  
  <!-- Inner hexagon - tech/infrastructure element -->
  <path d="M16 6L22.5 10.5V21.5L16 26L9.5 21.5V10.5L16 6Z" stroke="#181414" stroke-width="1.5" fill="none"/>
  
  <!-- Central dot - sensor core -->
  <circle cx="16" cy="16" r="2" fill="#181414"/>
  
  <!-- Signal waves - representing monitoring/detection -->
  <path d="M12 12C13.1 13.1 13.1 14.9 12 16C13.1 17.1 13.1 18.9 12 20" stroke="#181414" stroke-width="1.5" stroke-linecap="round" opacity="0.8"/>
  <path d="M20 12C18.9 13.1 18.9 14.9 20 16C18.9 17.1 18.9 18.9 20 20" stroke="#181414" stroke-width="1.5" stroke-linecap="round" opacity="0.8"/>
  
  <!-- Corner accent dots - representing data points -->
  <circle cx="6" cy="6" r="1" fill="#181414" opacity="0.4"/>
  <circle cx="26" cy="6" r="1" fill="#181414" opacity="0.4"/>
  <circle cx="6" cy="26" r="1" fill="#181414" opacity="0.4"/>
  <circle cx="26" cy="26" r="1" fill="#181414" opacity="0.4"/>
</svg> 